<?xml version="1.0" standalone="no"?><!DOCTYPE svg PUBLIC "-//W3C//DTD SVG 1.1//EN" "http://www.w3.org/Graphics/SVG/1.1/DTD/svg11.dtd"><svg t="1781752641675" class="icon" viewBox="0 0 1024 1024" version="1.1" xmlns="http://www.w3.org/2000/svg" p-id="1442" xmlns:xlink="http://www.w3.org/1999/xlink" width="200" height="200"><path d="M65.024 747.451733v-91.682133c12.561067 5.802667 24.234667 8.635733 35.054933 8.635733 29.696 0 49.390933-19.217067 59.153067-57.685333-16.384 10.786133-32.9728 16.1792-49.732267 16.1792-23.005867 0-42.1888-9.5232-57.5488-28.535467-15.36-19.0464-23.005867-43.9296-23.005866-74.683733v-176.469333h95.744v151.074133c0 16.554667 6.280533 24.814933 18.8416 24.814933 11.844267 0 17.783467-9.216 17.783466-27.648v-148.241066h95.778134v250.88c0 50.722133-13.994667 90.794667-41.8816 120.2176-27.886933 29.422933-59.972267 44.1344-96.256 44.1344a143.598933 143.598933 0 0 1-53.930667-10.990934z m232.8576-263.509333c0-40.004267 13.175467-74.513067 39.5264-103.560533 26.3168-29.013333 57.617067-43.52 93.9008-43.52s67.584 14.506667 93.934933 43.554133c26.3168 29.013333 39.492267 63.522133 39.492267 103.492267 0 40.004267-13.073067 74.410667-39.253333 103.253333-26.146133 28.842667-57.5488 43.246933-94.173867 43.246933s-68.027733-14.4384-94.208-43.246933c-26.146133-28.842667-39.2192-63.249067-39.2192-103.253333z m94.72 0c0 11.502933 3.754667 21.4016 11.264 29.696 7.509333 8.260267 16.622933 12.3904 27.4432 12.3904 10.820267 0 19.968-4.130133 27.477333-12.424533 7.509333-8.260267 11.264-18.158933 11.264-29.696 0-11.912533-3.754667-21.981867-11.264-30.276267a35.7376 35.7376 0 0 0-27.477333-12.3904c-10.820267 0-19.968 4.130133-27.477333 12.3904-7.509333 8.2944-11.264 18.363733-11.264 30.276267z m308.189867-244.5312v384.648533h-95.778134V239.377067h95.778134z m40.789333 244.497067c0-39.936 13.175467-74.478933 39.5264-103.492267 26.3168-29.013333 57.617067-43.554133 93.9008-43.554133s67.584 14.506667 93.934933 43.554133c26.3168 29.013333 39.492267 63.522133 39.492267 103.492267 0 40.004267-13.073067 74.410667-39.253333 103.253333-26.146133 28.842667-57.5488 43.246933-94.173867 43.246933s-68.027733-14.4384-94.208-43.246933c-26.146133-28.842667-39.2192-63.249067-39.2192-103.253333z m94.72 0c0 11.537067 3.754667 21.469867 11.264 29.696 7.509333 8.2944 16.622933 12.424533 27.4432 12.424533 10.820267 0 19.968-4.130133 27.477333-12.424533 7.509333-8.260267 11.264-18.158933 11.264-29.696 0-11.912533-3.754667-21.981867-11.264-30.276267a35.7376 35.7376 0 0 0-27.477333-12.3904c-10.820267 0-19.968 4.130133-27.477333 12.3904-7.509333 8.2944-11.264 18.363733-11.264 30.276267z" fill="#1296db" p-id="1443"></path></svg>